<?xml version="1.0" encoding="utf-8"?>
<!-- Generator: Adobe Illustrator 24.2.3, SVG Export Plug-In . SVG Version: 6.00 Build 0)  -->
<svg version="1.1" id="US_UK_Download_on_the" xmlns="http://www.w3.org/2000/svg" xmlns:xlink="http://www.w3.org/1999/xlink"
	 x="0px" y="0px" viewBox="-472 279 135 40" style="enable-background:new -472 279 135 40;" xml:space="preserve">
<style type="text/css">
	.st0{display:none;fill:#A6A6A6;}
	.st1{fill:none;stroke:#212222;stroke-miterlimit:10;}
	.st2{fill:#212222;}
	.st3{fill-rule:evenodd;clip-rule:evenodd;fill:#212121;}
</style>
<path class="st0" d="M-341.8,319h-125.5c-2.6,0-4.7-2.1-4.7-4.7v-30.5c0-2.6,2.1-4.7,4.7-4.7h125.5c2.6,0,4.8,2.1,4.8,4.7v30.5
	C-337,316.9-339.2,319-341.8,319L-341.8,319z"/>
<path class="st1" d="M-338,314.3c0,2.1-1.7,3.8-3.8,3.8h-125.5c-2.1,0-3.8-1.7-3.8-3.8v-30.5c0-2.1,1.7-3.8,3.8-3.8h125.5
	c2.1,0,3.8,1.7,3.8,3.8L-338,314.3L-338,314.3z"/>
<g>
	<g>
		<path class="st2" d="M-417.9,288.9h1.7c0.4,0,0.8,0,1.1,0.1c0.3,0.1,0.6,0.2,0.9,0.5c0.7,0.6,1,1.5,1,2.6c0,0.4,0,0.7-0.1,1.1
			c-0.1,0.3-0.2,0.6-0.3,0.9c-0.1,0.3-0.3,0.5-0.5,0.7c-0.2,0.2-0.4,0.3-0.6,0.4c-0.2,0.1-0.4,0.2-0.7,0.2s-0.5,0.1-0.8,0.1h-1.7
			c-0.2,0-0.4,0-0.5-0.1c-0.1-0.1-0.2-0.2-0.2-0.3c0-0.1-0.1-0.3-0.1-0.5v-4.7c0-0.3,0.1-0.5,0.2-0.6
			C-418.4,289-418.2,288.9-417.9,288.9z M-417.4,290v4.4h1c0.2,0,0.4,0,0.5,0c0.1,0,0.3,0,0.4-0.1c0.1,0,0.2-0.1,0.3-0.2
			c0.4-0.4,0.7-1,0.7-1.9c0-0.6-0.1-1.1-0.3-1.4s-0.4-0.5-0.7-0.6s-0.6-0.1-1-0.1H-417.4z"/>
		<path class="st2" d="M-407.7,293.1c0,0.4-0.1,0.7-0.2,1c-0.1,0.3-0.3,0.6-0.5,0.8s-0.5,0.4-0.8,0.5c-0.3,0.1-0.6,0.2-1,0.2
			c-0.4,0-0.7-0.1-1-0.2c-0.3-0.1-0.5-0.3-0.8-0.5s-0.4-0.5-0.5-0.8c-0.1-0.3-0.2-0.6-0.2-1c0-0.4,0.1-0.7,0.2-1
			c0.1-0.3,0.3-0.6,0.5-0.8c0.2-0.2,0.5-0.4,0.8-0.5c0.3-0.1,0.6-0.2,1-0.2c0.4,0,0.7,0.1,1,0.2s0.6,0.3,0.8,0.5
			c0.2,0.2,0.4,0.5,0.5,0.8C-407.7,292.4-407.7,292.7-407.7,293.1z M-408.9,293.1c0-0.5-0.1-0.9-0.3-1.1c-0.2-0.3-0.5-0.4-0.9-0.4
			c-0.2,0-0.4,0.1-0.6,0.2s-0.3,0.3-0.4,0.5c-0.1,0.2-0.1,0.5-0.1,0.8c0,0.3,0,0.6,0.1,0.8c0.1,0.2,0.2,0.4,0.4,0.5
			c0.2,0.1,0.4,0.2,0.6,0.2c0.4,0,0.7-0.1,0.9-0.4S-408.9,293.6-408.9,293.1z"/>
		<path class="st2" d="M-406,291.4l0.8,2.7l0.7-2.5c0.1-0.3,0.1-0.4,0.2-0.5s0.1-0.2,0.2-0.3c0.1-0.1,0.2-0.1,0.4-0.1
			c0.2,0,0.3,0,0.4,0.1c0.1,0.1,0.2,0.2,0.2,0.3c0,0.1,0.1,0.3,0.2,0.5l0.7,2.5l0.8-2.7c0.1-0.2,0.1-0.3,0.1-0.4
			c0-0.1,0.1-0.2,0.2-0.2c0.1-0.1,0.2-0.1,0.3-0.1s0.3,0,0.4,0.2c0.1,0.1,0.2,0.2,0.2,0.4c0,0.1,0,0.3-0.1,0.6l-1,2.9
			c-0.1,0.2-0.2,0.4-0.2,0.5c0,0.1-0.1,0.2-0.2,0.3c-0.1,0.1-0.2,0.1-0.4,0.1c-0.2,0-0.3,0-0.4-0.1s-0.2-0.2-0.2-0.3
			c0-0.1-0.1-0.3-0.2-0.5l-0.7-2.3l-0.7,2.3c-0.1,0.3-0.2,0.6-0.3,0.7c-0.1,0.2-0.3,0.2-0.5,0.2c-0.1,0-0.2,0-0.3-0.1
			c-0.1-0.1-0.2-0.1-0.2-0.2c-0.1-0.1-0.1-0.2-0.2-0.3c0-0.1-0.1-0.2-0.1-0.3l-1-2.9c-0.1-0.3-0.1-0.5-0.1-0.6
			c0-0.1,0.1-0.2,0.2-0.3c0.1-0.1,0.2-0.2,0.4-0.2c0.2,0,0.3,0.1,0.4,0.2C-406.1,290.9-406,291.1-406,291.4z"/>
		<path class="st2" d="M-398.3,291.3v0.1c0.2-0.3,0.4-0.5,0.7-0.6c0.3-0.1,0.5-0.2,0.9-0.2c0.3,0,0.6,0.1,0.8,0.2
			c0.2,0.1,0.4,0.3,0.6,0.6c0.1,0.1,0.1,0.3,0.2,0.5c0,0.2,0,0.4,0,0.7v2.2c0,0.2-0.1,0.4-0.2,0.5c-0.1,0.1-0.3,0.2-0.4,0.2
			c-0.2,0-0.3-0.1-0.4-0.2c-0.1-0.1-0.2-0.3-0.2-0.5v-2c0-0.4-0.1-0.7-0.2-0.9c-0.1-0.2-0.3-0.3-0.7-0.3c-0.2,0-0.4,0.1-0.6,0.2
			c-0.2,0.1-0.3,0.3-0.4,0.5c-0.1,0.2-0.1,0.5-0.1,1v1.5c0,0.2-0.1,0.4-0.2,0.5c-0.1,0.1-0.3,0.2-0.4,0.2c-0.2,0-0.3-0.1-0.4-0.2
			s-0.2-0.3-0.2-0.5v-3.5c0-0.2,0-0.4,0.1-0.5s0.2-0.2,0.4-0.2c0.1,0,0.2,0,0.3,0.1c0.1,0,0.2,0.1,0.2,0.2
			C-398.3,291-398.3,291.1-398.3,291.3z"/>
		<path class="st2" d="M-393.9,294.8v-5.2c0-0.2,0.1-0.4,0.2-0.5c0.1-0.1,0.3-0.2,0.4-0.2c0.2,0,0.3,0.1,0.4,0.2s0.2,0.3,0.2,0.5
			v5.2c0,0.2-0.1,0.4-0.2,0.5c-0.1,0.1-0.3,0.2-0.4,0.2c-0.2,0-0.3-0.1-0.4-0.2C-393.9,295.2-393.9,295-393.9,294.8z"/>
		<path class="st2" d="M-387,293.1c0,0.4-0.1,0.7-0.2,1s-0.3,0.6-0.5,0.8s-0.5,0.4-0.8,0.5c-0.3,0.1-0.6,0.2-1,0.2
			c-0.4,0-0.7-0.1-1-0.2c-0.3-0.1-0.5-0.3-0.8-0.5s-0.4-0.5-0.5-0.8c-0.1-0.3-0.2-0.6-0.2-1c0-0.4,0.1-0.7,0.2-1
			c0.1-0.3,0.3-0.6,0.5-0.8c0.2-0.2,0.5-0.4,0.8-0.5c0.3-0.1,0.6-0.2,1-0.2c0.4,0,0.7,0.1,1,0.2c0.3,0.1,0.5,0.3,0.8,0.5
			c0.2,0.2,0.4,0.5,0.5,0.8C-387.1,292.4-387,292.7-387,293.1z M-388.2,293.1c0-0.5-0.1-0.9-0.3-1.1c-0.2-0.3-0.5-0.4-0.9-0.4
			c-0.2,0-0.4,0.1-0.6,0.2c-0.2,0.1-0.3,0.3-0.4,0.5c-0.1,0.2-0.1,0.5-0.1,0.8c0,0.3,0,0.6,0.1,0.8c0.1,0.2,0.2,0.4,0.4,0.5
			s0.4,0.2,0.6,0.2c0.4,0,0.7-0.1,0.9-0.4S-388.2,293.6-388.2,293.1z"/>
		<path class="st2" d="M-383,294.8c-0.3,0.2-0.6,0.4-0.8,0.5s-0.6,0.2-0.9,0.2c-0.3,0-0.6-0.1-0.8-0.2c-0.2-0.1-0.4-0.3-0.5-0.5
			c-0.1-0.2-0.2-0.4-0.2-0.7c0-0.3,0.1-0.6,0.3-0.8c0.2-0.2,0.5-0.4,0.9-0.5c0.1,0,0.3-0.1,0.6-0.1c0.3-0.1,0.6-0.1,0.8-0.2
			c0.2-0.1,0.5-0.1,0.7-0.2c0-0.3-0.1-0.5-0.2-0.7c-0.1-0.1-0.3-0.2-0.7-0.2c-0.3,0-0.5,0-0.7,0.1c-0.2,0.1-0.3,0.2-0.4,0.4
			s-0.2,0.3-0.2,0.3c0,0.1-0.1,0.1-0.3,0.1c-0.1,0-0.3,0-0.3-0.1c-0.1-0.1-0.1-0.2-0.1-0.3c0-0.2,0.1-0.4,0.2-0.6
			c0.1-0.2,0.4-0.4,0.7-0.5c0.3-0.1,0.7-0.2,1.2-0.2c0.5,0,0.9,0.1,1.2,0.2s0.5,0.3,0.6,0.6c0.1,0.3,0.2,0.6,0.2,1.1
			c0,0.3,0,0.5,0,0.7c0,0.2,0,0.4,0,0.7c0,0.2,0,0.5,0.1,0.7c0.1,0.2,0.1,0.4,0.1,0.5c0,0.1-0.1,0.2-0.2,0.3
			c-0.1,0.1-0.2,0.2-0.4,0.2c-0.1,0-0.2-0.1-0.4-0.2C-382.8,295.2-382.9,295.1-383,294.8z M-383.1,293.1c-0.2,0.1-0.4,0.1-0.8,0.2
			c-0.3,0.1-0.6,0.1-0.7,0.2c-0.1,0-0.3,0.1-0.4,0.2c-0.1,0.1-0.2,0.2-0.2,0.4c0,0.2,0.1,0.3,0.2,0.5c0.1,0.1,0.3,0.2,0.5,0.2
			c0.2,0,0.5-0.1,0.7-0.2c0.2-0.1,0.3-0.2,0.4-0.4c0.1-0.2,0.2-0.5,0.2-0.9V293.1z"/>
		<path class="st2" d="M-377.4,294.8v-0.1c-0.2,0.2-0.3,0.3-0.5,0.5s-0.3,0.2-0.5,0.3c-0.2,0.1-0.4,0.1-0.6,0.1
			c-0.3,0-0.6-0.1-0.8-0.2c-0.2-0.1-0.5-0.3-0.6-0.5c-0.2-0.2-0.3-0.5-0.4-0.8c-0.1-0.3-0.1-0.6-0.1-1c0-0.8,0.2-1.3,0.5-1.8
			s0.8-0.6,1.4-0.6c0.3,0,0.6,0.1,0.9,0.2c0.2,0.1,0.5,0.3,0.7,0.5v-1.8c0-0.2,0-0.4,0.1-0.6s0.2-0.2,0.4-0.2c0.2,0,0.3,0.1,0.4,0.2
			s0.1,0.3,0.1,0.5v5.3c0,0.2-0.1,0.4-0.2,0.5s-0.2,0.2-0.4,0.2c-0.2,0-0.3-0.1-0.4-0.2C-377.3,295.2-377.4,295-377.4,294.8z
			 M-379.8,293.1c0,0.3,0.1,0.6,0.2,0.8c0.1,0.2,0.2,0.4,0.4,0.5c0.2,0.1,0.4,0.2,0.6,0.2c0.2,0,0.4-0.1,0.6-0.2
			c0.2-0.1,0.3-0.3,0.4-0.5c0.1-0.2,0.2-0.5,0.2-0.9c0-0.3-0.1-0.6-0.2-0.8c-0.1-0.2-0.2-0.4-0.4-0.5c-0.2-0.1-0.4-0.2-0.6-0.2
			c-0.2,0-0.4,0.1-0.6,0.2c-0.2,0.1-0.3,0.3-0.4,0.5C-379.7,292.5-379.8,292.8-379.8,293.1z"/>
		<path class="st2" d="M-368.3,293.1c0,0.4-0.1,0.7-0.2,1s-0.3,0.6-0.5,0.8s-0.5,0.4-0.8,0.5c-0.3,0.1-0.6,0.2-1,0.2
			c-0.4,0-0.7-0.1-1-0.2c-0.3-0.1-0.5-0.3-0.8-0.5s-0.4-0.5-0.5-0.8c-0.1-0.3-0.2-0.6-0.2-1c0-0.4,0.1-0.7,0.2-1
			c0.1-0.3,0.3-0.6,0.5-0.8c0.2-0.2,0.5-0.4,0.8-0.5c0.3-0.1,0.6-0.2,1-0.2c0.4,0,0.7,0.1,1,0.2c0.3,0.1,0.5,0.3,0.8,0.5
			c0.2,0.2,0.4,0.5,0.5,0.8C-368.4,292.4-368.3,292.7-368.3,293.1z M-369.5,293.1c0-0.5-0.1-0.9-0.3-1.1c-0.2-0.3-0.5-0.4-0.9-0.4
			c-0.2,0-0.4,0.1-0.6,0.2c-0.2,0.1-0.3,0.3-0.4,0.5c-0.1,0.2-0.1,0.5-0.1,0.8c0,0.3,0,0.6,0.1,0.8c0.1,0.2,0.2,0.4,0.4,0.5
			s0.4,0.2,0.6,0.2c0.4,0,0.7-0.1,0.9-0.4S-369.5,293.6-369.5,293.1z"/>
		<path class="st2" d="M-366.3,291.3v0.1c0.2-0.3,0.4-0.5,0.7-0.6s0.5-0.2,0.9-0.2c0.3,0,0.6,0.1,0.8,0.2c0.2,0.1,0.4,0.3,0.6,0.6
			c0.1,0.1,0.1,0.3,0.2,0.5c0,0.2,0,0.4,0,0.7v2.2c0,0.2-0.1,0.4-0.2,0.5c-0.1,0.1-0.3,0.2-0.4,0.2c-0.2,0-0.3-0.1-0.4-0.2
			c-0.1-0.1-0.2-0.3-0.2-0.5v-2c0-0.4-0.1-0.7-0.2-0.9s-0.3-0.3-0.7-0.3c-0.2,0-0.4,0.1-0.6,0.2c-0.2,0.1-0.3,0.3-0.4,0.5
			c-0.1,0.2-0.1,0.5-0.1,1v1.5c0,0.2-0.1,0.4-0.2,0.5c-0.1,0.1-0.3,0.2-0.4,0.2c-0.2,0-0.3-0.1-0.4-0.2s-0.2-0.3-0.2-0.5v-3.5
			c0-0.2,0-0.4,0.1-0.5s0.2-0.2,0.4-0.2c0.1,0,0.2,0,0.3,0.1s0.2,0.1,0.2,0.2C-366.3,291-366.3,291.1-366.3,291.3z"/>
		<path class="st2" d="M-359.6,290.7h0.1V290c0-0.2,0-0.3,0-0.5c0-0.1,0-0.2,0.1-0.3c0-0.1,0.1-0.1,0.2-0.2c0.1-0.1,0.2-0.1,0.3-0.1
			c0.2,0,0.3,0.1,0.4,0.2c0.1,0.1,0.1,0.2,0.2,0.3c0,0.1,0,0.3,0,0.5v0.8h0.4c0.2,0,0.3,0,0.4,0.1c0.1,0.1,0.1,0.2,0.1,0.3
			c0,0.2-0.1,0.3-0.2,0.3c-0.1,0.1-0.3,0.1-0.5,0.1h-0.2v2.2c0,0.2,0,0.3,0,0.4c0,0.1,0,0.2,0.1,0.2c0.1,0.1,0.2,0.1,0.3,0.1
			c0.1,0,0.2,0,0.3,0c0.1,0,0.2,0,0.3,0c0.1,0,0.2,0,0.3,0.1c0.1,0.1,0.1,0.2,0.1,0.3c0,0.2-0.1,0.3-0.3,0.4
			c-0.2,0.1-0.5,0.2-0.9,0.2c-0.4,0-0.7-0.1-0.9-0.2s-0.3-0.3-0.4-0.5c-0.1-0.2-0.1-0.5-0.1-0.9v-2.3h-0.2c-0.2,0-0.3,0-0.4-0.1
			c-0.1-0.1-0.1-0.2-0.1-0.3c0-0.1,0-0.2,0.1-0.3C-359.9,290.8-359.8,290.7-359.6,290.7z"/>
		<path class="st2" d="M-355.3,289.6v1.8c0.2-0.2,0.3-0.3,0.4-0.4s0.3-0.2,0.5-0.2c0.2-0.1,0.4-0.1,0.6-0.1c0.3,0,0.6,0.1,0.8,0.2
			c0.2,0.1,0.4,0.3,0.6,0.6c0.1,0.1,0.1,0.3,0.2,0.5c0,0.2,0,0.4,0,0.6v2.3c0,0.2-0.1,0.4-0.2,0.5c-0.1,0.1-0.3,0.2-0.4,0.2
			c-0.4,0-0.6-0.2-0.6-0.7v-2c0-0.4-0.1-0.7-0.2-0.9c-0.1-0.2-0.3-0.3-0.7-0.3c-0.2,0-0.4,0.1-0.6,0.2c-0.2,0.1-0.3,0.3-0.4,0.5
			c-0.1,0.2-0.1,0.5-0.1,1v1.6c0,0.2-0.1,0.4-0.2,0.5s-0.3,0.2-0.4,0.2c-0.4,0-0.6-0.2-0.6-0.7v-5.2c0-0.2,0.1-0.4,0.2-0.5
			c0.1-0.1,0.3-0.2,0.4-0.2c0.2,0,0.3,0.1,0.4,0.2C-355.3,289.1-355.3,289.3-355.3,289.6z"/>
		<path class="st2" d="M-347.7,293.4h-2.4c0,0.3,0.1,0.5,0.2,0.7c0.1,0.2,0.2,0.4,0.4,0.5c0.2,0.1,0.4,0.2,0.6,0.2
			c0.1,0,0.3,0,0.4-0.1c0.1,0,0.2-0.1,0.3-0.2c0.1-0.1,0.2-0.1,0.3-0.2s0.2-0.2,0.4-0.3c0.1-0.1,0.1-0.1,0.3-0.1
			c0.1,0,0.2,0,0.3,0.1s0.1,0.2,0.1,0.3c0,0.1,0,0.2-0.1,0.4c-0.1,0.1-0.2,0.3-0.4,0.4s-0.4,0.2-0.6,0.3c-0.3,0.1-0.6,0.1-0.9,0.1
			c-0.8,0-1.4-0.2-1.8-0.7c-0.4-0.4-0.6-1-0.6-1.8c0-0.4,0.1-0.7,0.2-1s0.3-0.6,0.5-0.8c0.2-0.2,0.5-0.4,0.7-0.5
			c0.3-0.1,0.6-0.2,1-0.2c0.5,0,0.9,0.1,1.2,0.3s0.6,0.5,0.8,0.8c0.2,0.3,0.3,0.6,0.3,1c0,0.3-0.1,0.5-0.3,0.6
			C-347.1,293.3-347.3,293.4-347.7,293.4z M-350,292.7h2.2c0-0.4-0.1-0.7-0.3-0.9s-0.4-0.3-0.8-0.3c-0.3,0-0.5,0.1-0.7,0.3
			S-350,292.3-350,292.7z"/>
	</g>
</g>
<g>
	<path class="st2" d="M-410.8,306.2c0,0.3-0.1,0.6-0.2,1c-0.1,0.3-0.4,0.7-0.7,1s-0.7,0.6-1.2,0.8s-1.1,0.3-1.7,0.3
		c-0.5,0-0.9,0-1.3-0.1c-0.4-0.1-0.8-0.2-1.1-0.4c-0.3-0.2-0.6-0.5-0.9-0.8c-0.2-0.3-0.5-0.6-0.6-1c-0.2-0.4-0.3-0.7-0.4-1.2
		c-0.1-0.4-0.1-0.8-0.1-1.3c0-0.7,0.1-1.4,0.3-2c0.2-0.6,0.5-1.1,0.9-1.5s0.9-0.7,1.4-1c0.5-0.2,1.1-0.3,1.7-0.3
		c0.8,0,1.4,0.2,2,0.5s1,0.7,1.4,1.1s0.5,0.9,0.5,1.3c0,0.2-0.1,0.4-0.2,0.6c-0.2,0.2-0.3,0.2-0.6,0.2c-0.2,0-0.4-0.1-0.5-0.2
		c-0.1-0.1-0.3-0.3-0.4-0.6c-0.2-0.5-0.5-0.8-0.9-1c-0.3-0.2-0.7-0.3-1.2-0.3c-0.8,0-1.4,0.3-1.9,0.9c-0.5,0.6-0.7,1.4-0.7,2.5
		c0,0.7,0.1,1.3,0.3,1.8s0.5,0.8,0.9,1.1c0.4,0.2,0.8,0.4,1.3,0.4c0.5,0,1-0.1,1.4-0.4c0.4-0.3,0.7-0.7,0.8-1.2
		c0.1-0.2,0.2-0.4,0.3-0.6s0.3-0.2,0.6-0.2c0.2,0,0.4,0.1,0.6,0.2C-410.9,305.8-410.8,306-410.8,306.2z"/>
	<path class="st2" d="M-404.9,308.3c-0.4,0.3-0.8,0.6-1.2,0.7c-0.4,0.2-0.8,0.2-1.3,0.2c-0.4,0-0.8-0.1-1.2-0.3
		c-0.3-0.2-0.6-0.4-0.8-0.7c-0.2-0.3-0.3-0.6-0.3-1c0-0.5,0.2-0.9,0.5-1.2s0.7-0.6,1.2-0.7c0.1,0,0.4-0.1,0.8-0.2
		c0.4-0.1,0.8-0.2,1.1-0.2c0.3-0.1,0.6-0.2,1-0.3c0-0.5-0.1-0.8-0.3-1c-0.2-0.2-0.5-0.3-1-0.3c-0.4,0-0.8,0.1-1,0.2
		c-0.2,0.1-0.4,0.3-0.6,0.6c-0.2,0.2-0.3,0.4-0.3,0.5c-0.1,0.1-0.2,0.1-0.4,0.1c-0.2,0-0.4-0.1-0.5-0.2c-0.1-0.1-0.2-0.3-0.2-0.5
		c0-0.3,0.1-0.6,0.3-0.9c0.2-0.3,0.6-0.5,1-0.7c0.5-0.2,1-0.3,1.7-0.3c0.8,0,1.4,0.1,1.8,0.3s0.7,0.5,0.9,0.9s0.3,0.9,0.3,1.5
		c0,0.4,0,0.8,0,1c0,0.3,0,0.6,0,0.9c0,0.3,0.1,0.7,0.2,1c0.1,0.4,0.2,0.6,0.2,0.7c0,0.2-0.1,0.3-0.3,0.5c-0.2,0.1-0.4,0.2-0.6,0.2
		c-0.2,0-0.4-0.1-0.5-0.3S-404.7,308.6-404.9,308.3z M-405,305.8c-0.3,0.1-0.6,0.2-1.1,0.3c-0.5,0.1-0.8,0.2-1,0.2s-0.4,0.1-0.5,0.3
		s-0.3,0.3-0.3,0.6c0,0.3,0.1,0.5,0.3,0.7c0.2,0.2,0.5,0.3,0.8,0.3c0.3,0,0.7-0.1,0.9-0.2c0.3-0.2,0.5-0.3,0.6-0.6
		c0.2-0.3,0.2-0.7,0.2-1.3V305.8z"/>
	<path class="st2" d="M-401.7,302.4h0.4v-0.5c0-0.5,0.1-1,0.2-1.3c0.1-0.3,0.4-0.6,0.7-0.7c0.3-0.1,0.8-0.2,1.3-0.2
		c1,0,1.5,0.2,1.5,0.7c0,0.2-0.1,0.3-0.2,0.4c-0.1,0.1-0.2,0.2-0.4,0.2c-0.1,0-0.2,0-0.3,0c-0.2,0-0.3,0-0.4,0
		c-0.3,0-0.5,0.1-0.6,0.3c-0.1,0.2-0.1,0.4-0.1,0.8v0.4h0.4c0.7,0,1,0.2,1,0.6c0,0.3-0.1,0.5-0.3,0.5s-0.4,0.1-0.7,0.1h-0.4v4.6
		c0,0.3-0.1,0.6-0.2,0.8c-0.2,0.2-0.4,0.3-0.6,0.3c-0.2,0-0.5-0.1-0.6-0.3c-0.2-0.2-0.2-0.4-0.2-0.8v-4.6h-0.5
		c-0.3,0-0.5-0.1-0.6-0.2s-0.2-0.3-0.2-0.5C-402.6,302.6-402.3,302.4-401.7,302.4z"/>
	<path class="st2" d="M-392.4,306.2h-3.4c0,0.4,0.1,0.7,0.2,1c0.2,0.3,0.4,0.5,0.6,0.7s0.5,0.2,0.8,0.2c0.2,0,0.4,0,0.6-0.1
		c0.2,0,0.3-0.1,0.5-0.2c0.2-0.1,0.3-0.2,0.4-0.3c0.1-0.1,0.3-0.3,0.5-0.5c0.1-0.1,0.2-0.1,0.4-0.1c0.2,0,0.3,0,0.4,0.1
		c0.1,0.1,0.2,0.2,0.2,0.4c0,0.2-0.1,0.3-0.2,0.5c-0.1,0.2-0.3,0.4-0.6,0.6c-0.2,0.2-0.6,0.4-0.9,0.5c-0.4,0.1-0.8,0.2-1.3,0.2
		c-1.1,0-2-0.3-2.6-1s-0.9-1.5-0.9-2.6c0-0.5,0.1-1,0.2-1.4c0.2-0.4,0.4-0.8,0.7-1.1c0.3-0.3,0.7-0.6,1.1-0.7
		c0.4-0.2,0.9-0.3,1.4-0.3c0.7,0,1.3,0.1,1.7,0.4c0.5,0.3,0.8,0.7,1.1,1.1c0.2,0.5,0.4,0.9,0.4,1.4c0,0.4-0.1,0.7-0.4,0.8
		C-391.6,306.1-391.9,306.2-392.4,306.2z M-395.8,305.2h3.1c0-0.6-0.2-1-0.5-1.3s-0.6-0.4-1.1-0.4c-0.4,0-0.8,0.1-1.1,0.4
		C-395.5,304.2-395.7,304.6-395.8,305.2z"/>
	<path class="st2" d="M-385.4,309.2h-2.8c-0.4,0-0.7-0.1-0.9-0.3c-0.2-0.2-0.3-0.5-0.3-0.9v-7c0-0.4,0.1-0.7,0.3-0.9
		s0.5-0.3,0.9-0.3h3c0.4,0,0.8,0,1.2,0.1c0.3,0.1,0.6,0.2,0.9,0.3c0.2,0.1,0.4,0.3,0.6,0.5c0.2,0.2,0.3,0.4,0.4,0.7s0.1,0.5,0.1,0.8
		c0,0.9-0.5,1.6-1.4,2c1.2,0.4,1.8,1.1,1.8,2.3c0,0.5-0.1,1-0.4,1.4c-0.3,0.4-0.6,0.7-1.1,0.9c-0.3,0.1-0.6,0.2-1,0.3
		C-384.5,309.1-384.9,309.2-385.4,309.2z M-387.5,301.3v2.4h1.7c0.5,0,0.8,0,1.1-0.1c0.3-0.1,0.5-0.3,0.6-0.5
		c0.1-0.2,0.2-0.4,0.2-0.6c0-0.5-0.2-0.8-0.5-0.9c-0.3-0.2-0.8-0.2-1.5-0.2H-387.5z M-385.5,305h-2v2.7h2c1.3,0,1.9-0.5,1.9-1.4
		c0-0.5-0.2-0.8-0.5-1C-384.4,305.1-384.9,305-385.5,305z"/>
	<path class="st2" d="M-375.8,308.3c-0.4,0.3-0.8,0.6-1.2,0.7s-0.8,0.2-1.3,0.2c-0.4,0-0.8-0.1-1.2-0.3c-0.3-0.2-0.6-0.4-0.8-0.7
		c-0.2-0.3-0.3-0.6-0.3-1c0-0.5,0.2-0.9,0.5-1.2c0.3-0.3,0.7-0.6,1.2-0.7c0.1,0,0.4-0.1,0.8-0.2c0.4-0.1,0.8-0.2,1.1-0.2
		c0.3-0.1,0.6-0.2,1-0.3c0-0.5-0.1-0.8-0.3-1s-0.5-0.3-1-0.3c-0.4,0-0.8,0.1-1,0.2c-0.2,0.1-0.4,0.3-0.6,0.6
		c-0.2,0.2-0.3,0.4-0.3,0.5s-0.2,0.1-0.4,0.1c-0.2,0-0.4-0.1-0.5-0.2s-0.2-0.3-0.2-0.5c0-0.3,0.1-0.6,0.3-0.9c0.2-0.3,0.6-0.5,1-0.7
		c0.5-0.2,1-0.3,1.7-0.3c0.8,0,1.4,0.1,1.8,0.3c0.4,0.2,0.7,0.5,0.9,0.9s0.3,0.9,0.3,1.5c0,0.4,0,0.8,0,1c0,0.3,0,0.6,0,0.9
		c0,0.3,0.1,0.7,0.2,1c0.1,0.4,0.2,0.6,0.2,0.7c0,0.2-0.1,0.3-0.3,0.5c-0.2,0.1-0.4,0.2-0.6,0.2c-0.2,0-0.4-0.1-0.5-0.3
		S-375.6,308.6-375.8,308.3z M-375.9,305.8c-0.3,0.1-0.6,0.2-1.1,0.3s-0.8,0.2-1,0.2s-0.4,0.1-0.5,0.3s-0.3,0.3-0.3,0.6
		c0,0.3,0.1,0.5,0.3,0.7c0.2,0.2,0.5,0.3,0.8,0.3c0.3,0,0.7-0.1,0.9-0.2s0.5-0.3,0.6-0.6c0.2-0.3,0.2-0.7,0.2-1.3V305.8z"/>
	<path class="st2" d="M-367.7,304.3l-3.2,3.5h3.4c0.3,0,0.5,0.1,0.6,0.2s0.2,0.3,0.2,0.5c0,0.2-0.1,0.4-0.2,0.5
		c-0.1,0.1-0.3,0.2-0.6,0.2h-4.7c-0.3,0-0.6-0.1-0.7-0.2s-0.2-0.3-0.2-0.6c0-0.1,0.1-0.3,0.2-0.4s0.4-0.4,0.7-0.8
		c0.4-0.4,0.7-0.8,1-1.1c0.3-0.3,0.6-0.7,0.9-1c0.3-0.3,0.5-0.6,0.7-0.8s0.3-0.4,0.4-0.5h-2.6c-0.4,0-0.6,0-0.8-0.1
		c-0.2-0.1-0.3-0.2-0.3-0.5c0-0.2,0.1-0.4,0.2-0.5c0.1-0.1,0.3-0.2,0.6-0.2h4c0.4,0,0.7,0.1,0.8,0.2c0.2,0.1,0.3,0.3,0.3,0.6
		c0,0.1,0,0.2-0.1,0.3s-0.1,0.2-0.1,0.2s-0.1,0.1-0.2,0.2S-367.6,304.1-367.7,304.3z"/>
	<path class="st2" d="M-361.3,308.3c-0.4,0.3-0.8,0.6-1.2,0.7s-0.8,0.2-1.3,0.2c-0.4,0-0.8-0.1-1.2-0.3c-0.3-0.2-0.6-0.4-0.8-0.7
		c-0.2-0.3-0.3-0.6-0.3-1c0-0.5,0.2-0.9,0.5-1.2c0.3-0.3,0.7-0.6,1.2-0.7c0.1,0,0.4-0.1,0.8-0.2c0.4-0.1,0.8-0.2,1.1-0.2
		c0.3-0.1,0.6-0.2,1-0.3c0-0.5-0.1-0.8-0.3-1s-0.5-0.3-1-0.3c-0.4,0-0.8,0.1-1,0.2c-0.2,0.1-0.4,0.3-0.6,0.6
		c-0.2,0.2-0.3,0.4-0.3,0.5s-0.2,0.1-0.4,0.1c-0.2,0-0.4-0.1-0.5-0.2s-0.2-0.3-0.2-0.5c0-0.3,0.1-0.6,0.3-0.9c0.2-0.3,0.6-0.5,1-0.7
		c0.5-0.2,1-0.3,1.7-0.3c0.8,0,1.4,0.1,1.8,0.3c0.4,0.2,0.7,0.5,0.9,0.9s0.3,0.9,0.3,1.5c0,0.4,0,0.8,0,1c0,0.3,0,0.6,0,0.9
		c0,0.3,0.1,0.7,0.2,1c0.1,0.4,0.2,0.6,0.2,0.7c0,0.2-0.1,0.3-0.3,0.5c-0.2,0.1-0.4,0.2-0.6,0.2c-0.2,0-0.4-0.1-0.5-0.3
		S-361.1,308.6-361.3,308.3z M-361.4,305.8c-0.3,0.1-0.6,0.2-1.1,0.3s-0.8,0.2-1,0.2s-0.4,0.1-0.5,0.3s-0.3,0.3-0.3,0.6
		c0,0.3,0.1,0.5,0.3,0.7c0.2,0.2,0.5,0.3,0.8,0.3c0.3,0,0.7-0.1,0.9-0.2s0.5-0.3,0.6-0.6c0.2-0.3,0.2-0.7,0.2-1.3V305.8z"/>
	<path class="st2" d="M-353.5,308.3c-0.4,0.3-0.8,0.6-1.2,0.7s-0.8,0.2-1.3,0.2c-0.4,0-0.8-0.1-1.2-0.3c-0.3-0.2-0.6-0.4-0.8-0.7
		c-0.2-0.3-0.3-0.6-0.3-1c0-0.5,0.2-0.9,0.5-1.2c0.3-0.3,0.7-0.6,1.2-0.7c0.1,0,0.4-0.1,0.8-0.2c0.4-0.1,0.8-0.2,1.1-0.2
		c0.3-0.1,0.6-0.2,1-0.3c0-0.5-0.1-0.8-0.3-1s-0.5-0.3-1-0.3c-0.4,0-0.8,0.1-1,0.2c-0.2,0.1-0.4,0.3-0.6,0.6
		c-0.2,0.2-0.3,0.4-0.3,0.5s-0.2,0.1-0.4,0.1c-0.2,0-0.4-0.1-0.5-0.2s-0.2-0.3-0.2-0.5c0-0.3,0.1-0.6,0.3-0.9c0.2-0.3,0.6-0.5,1-0.7
		c0.5-0.2,1-0.3,1.7-0.3c0.8,0,1.4,0.1,1.8,0.3c0.4,0.2,0.7,0.5,0.9,0.9s0.3,0.9,0.3,1.5c0,0.4,0,0.8,0,1c0,0.3,0,0.6,0,0.9
		c0,0.3,0.1,0.7,0.2,1c0.1,0.4,0.2,0.6,0.2,0.7c0,0.2-0.1,0.3-0.3,0.5c-0.2,0.1-0.4,0.2-0.6,0.2c-0.2,0-0.4-0.1-0.5-0.3
		S-353.3,308.6-353.5,308.3z M-353.7,305.8c-0.3,0.1-0.6,0.2-1.1,0.3s-0.8,0.2-1,0.2s-0.4,0.1-0.5,0.3s-0.3,0.3-0.3,0.6
		c0,0.3,0.1,0.5,0.3,0.7c0.2,0.2,0.5,0.3,0.8,0.3c0.3,0,0.7-0.1,0.9-0.2s0.5-0.3,0.6-0.6c0.2-0.3,0.2-0.7,0.2-1.3V305.8z"/>
	<path class="st2" d="M-348.5,306.8v1.4c0,0.4-0.1,0.6-0.2,0.8c-0.2,0.2-0.4,0.3-0.6,0.3c-0.3,0-0.5-0.1-0.6-0.3
		c-0.2-0.2-0.2-0.4-0.2-0.8v-4.8c0-0.8,0.3-1.2,0.8-1.2c0.3,0,0.5,0.1,0.6,0.3s0.2,0.5,0.2,0.8c0.2-0.4,0.4-0.6,0.6-0.8
		s0.5-0.3,0.9-0.3c0.4,0,0.7,0.1,1.1,0.3s0.5,0.4,0.5,0.7c0,0.2-0.1,0.4-0.2,0.5c-0.1,0.1-0.3,0.2-0.5,0.2c-0.1,0-0.2,0-0.5-0.1
		s-0.5-0.1-0.6-0.1c-0.3,0-0.5,0.1-0.6,0.2c-0.2,0.1-0.3,0.3-0.4,0.6c-0.1,0.3-0.1,0.6-0.2,0.9
		C-348.5,305.8-348.5,306.3-348.5,306.8z"/>
</g>
<g>
	<path class="st3" d="M-436.8,291v11.7c0,0.7,0.4,1.7,0.9,2.3c0.1,0.1,0.1,0.2,0.2,0.3c0.1,0.1,0.1,0.2,0.2,0.3
		c0.4,0.3,0.8,0.6,1.2,0.8c0.5,0.2,1.1,0.4,1.7,0.4h4.5c0.7,0,1.1-0.3,1.5-0.6c1-0.8,1.1-2.7-0.5-3.6c-0.9-0.5-4.4,0-5-0.3
		c-0.2-0.1-0.3-0.2-0.4-0.4c-0.1-0.3,0-8.3,0-9c0-1.4,0.2-2.7-1-3.5c-1.2-0.8-2.7-0.2-3.2,0.8C-436.6,290.3-436.8,290.7-436.8,291
		L-436.8,291z"/>
	<path class="st3" d="M-450,306.5c0,0.8,0.2,1.4,0.8,1.9c0.4,0.4,1,0.5,1.8,0.5h3.7c2.9,0,4.8-1.9,4.8-4.8v-5.9
		c0-0.9-0.2-1.3-0.6-1.8c-0.7-0.9-2.3-1.1-3.2-0.1c-0.7,0.7-0.7,1.2-0.7,2c0,1.6,0,3.3,0,4.9c0,1-0.2,1.3-1.2,1.2
		c-0.8,0-1.7,0-2.5,0c-1,0-1.4-0.1-2.1,0.4C-449.5,305.2-450,305.8-450,306.5L-450,306.5z"/>
	<path class="st3" d="M-463.3,302c0,1,0.3,1.8,1.2,2.2c0.3,0.1,0.5,0.2,0.9,0.2h4.8c2.1,0,4.2-2,4.2-4.5v-6.5c0-0.7-0.3-1.2-0.6-1.6
		c-1-1-2.5-0.9-3.3,0.1c-0.5,0.6-0.5,0.8-0.5,1.9c0,1.6,0,3.3,0,4.9c0,0.5,0,0.7-0.2,1c-0.3,0.3-0.5,0.2-1,0.2c-0.8,0-1.7,0-2.5,0
		c-1.2,0-2,0.1-2.6,1.1C-463.1,301.3-463.3,301.7-463.3,302L-463.3,302z"/>
	<path class="st3" d="M-450,288.8v11.4c0,1.8,2.5,2.9,3.8,1.3c0.4-0.4,0.6-0.9,0.6-1.8v-10.6c0-0.7-0.2-1.3-0.6-1.6
		C-447.6,285.9-450,287.1-450,288.8L-450,288.8z"/>
	<path class="st3" d="M-439,308.8c0,1.4,0.9,2.3,2.3,2.3c2.4,0,2.9-3.3,0.9-4.2C-437.5,306.1-439,307.5-439,308.8L-439,308.8z"/>
	<path class="st3" d="M-443.4,291.1c0,0.7,0.1,1.2,0.6,1.7c1.3,1.3,3.8,0.5,3.8-1.6c0-1.2-1.1-2.2-2.2-2.2
		C-442.3,289-443.4,289.9-443.4,291.1L-443.4,291.1z"/>
</g>
</svg>
