<?xml version="1.0" encoding="utf-8"?>
<!-- Generator: Adobe Illustrator 24.2.3, SVG Export Plug-In . SVG Version: 6.00 Build 0)  -->
<svg version="1.1" id="US_UK_Download_on_the" xmlns="http://www.w3.org/2000/svg" xmlns:xlink="http://www.w3.org/1999/xlink"
	 x="0px" y="0px" viewBox="-472 279 135 40" style="enable-background:new -472 279 135 40;" xml:space="preserve">
<style type="text/css">
	.st0{display:none;fill:#A6A6A6;}
	.st1{fill:none;stroke:#212222;stroke-miterlimit:10;}
	.st2{fill:#212222;}
	.st3{display:none;}
	.st4{display:inline;fill-rule:evenodd;clip-rule:evenodd;fill:#212121;}
	.st5{fill:#212121;}
</style>
<path class="st0" d="M-341.8,319h-125.5c-2.6,0-4.7-2.1-4.7-4.7v-30.5c0-2.6,2.1-4.7,4.7-4.7h125.5c2.6,0,4.8,2.1,4.8,4.7v30.5
	C-337,316.9-339.2,319-341.8,319L-341.8,319z"/>
<path class="st1" d="M-338,314.3c0,2.1-1.7,3.8-3.8,3.8h-125.5c-2.1,0-3.8-1.7-3.8-3.8v-30.5c0-2.1,1.7-3.8,3.8-3.8h125.5
	c2.1,0,3.8,1.7,3.8,3.8L-338,314.3L-338,314.3z"/>
<g>
	<g>
		<path class="st2" d="M-420.9,287.9h1.7c0.4,0,0.8,0,1.1,0.1c0.3,0.1,0.6,0.2,0.9,0.5c0.7,0.6,1,1.5,1,2.6c0,0.4,0,0.7-0.1,1.1
			c-0.1,0.3-0.2,0.6-0.3,0.9c-0.1,0.3-0.3,0.5-0.5,0.7c-0.2,0.2-0.4,0.3-0.6,0.4c-0.2,0.1-0.4,0.2-0.7,0.2s-0.5,0.1-0.8,0.1h-1.7
			c-0.2,0-0.4,0-0.5-0.1c-0.1-0.1-0.2-0.2-0.2-0.3c0-0.1-0.1-0.3-0.1-0.5v-4.7c0-0.3,0.1-0.5,0.2-0.6
			C-421.4,288-421.2,287.9-420.9,287.9z M-420.4,289v4.4h1c0.2,0,0.4,0,0.5,0c0.1,0,0.3,0,0.4-0.1c0.1,0,0.2-0.1,0.3-0.2
			c0.4-0.4,0.7-1,0.7-1.9c0-0.6-0.1-1.1-0.3-1.4s-0.4-0.5-0.7-0.6s-0.6-0.1-1-0.1H-420.4z"/>
		<path class="st2" d="M-410.7,292.1c0,0.4-0.1,0.7-0.2,1c-0.1,0.3-0.3,0.6-0.5,0.8s-0.5,0.4-0.8,0.5c-0.3,0.1-0.6,0.2-1,0.2
			c-0.4,0-0.7-0.1-1-0.2c-0.3-0.1-0.5-0.3-0.8-0.5s-0.4-0.5-0.5-0.8c-0.1-0.3-0.2-0.6-0.2-1c0-0.4,0.1-0.7,0.2-1
			c0.1-0.3,0.3-0.6,0.5-0.8c0.2-0.2,0.5-0.4,0.8-0.5c0.3-0.1,0.6-0.2,1-0.2c0.4,0,0.7,0.1,1,0.2s0.6,0.3,0.8,0.5
			c0.2,0.2,0.4,0.5,0.5,0.8C-410.7,291.4-410.7,291.7-410.7,292.1z M-411.9,292.1c0-0.5-0.1-0.9-0.3-1.1c-0.2-0.3-0.5-0.4-0.9-0.4
			c-0.2,0-0.4,0.1-0.6,0.2s-0.3,0.3-0.4,0.5c-0.1,0.2-0.1,0.5-0.1,0.8c0,0.3,0,0.6,0.1,0.8c0.1,0.2,0.2,0.4,0.4,0.5
			c0.2,0.1,0.4,0.2,0.6,0.2c0.4,0,0.7-0.1,0.9-0.4S-411.9,292.6-411.9,292.1z"/>
		<path class="st2" d="M-409,290.4l0.8,2.7l0.7-2.5c0.1-0.3,0.1-0.4,0.2-0.5s0.1-0.2,0.2-0.3c0.1-0.1,0.2-0.1,0.4-0.1
			c0.2,0,0.3,0,0.4,0.1c0.1,0.1,0.2,0.2,0.2,0.3c0,0.1,0.1,0.3,0.2,0.5l0.7,2.5l0.8-2.7c0.1-0.2,0.1-0.3,0.1-0.4
			c0-0.1,0.1-0.2,0.2-0.2c0.1-0.1,0.2-0.1,0.3-0.1s0.3,0,0.4,0.2c0.1,0.1,0.2,0.2,0.2,0.4c0,0.1,0,0.3-0.1,0.6l-1,2.9
			c-0.1,0.2-0.2,0.4-0.2,0.5c0,0.1-0.1,0.2-0.2,0.3s-0.2,0.1-0.4,0.1c-0.2,0-0.3,0-0.4-0.1c-0.1-0.1-0.2-0.2-0.2-0.3
			c0-0.1-0.1-0.3-0.2-0.5l-0.7-2.3l-0.7,2.3c-0.1,0.3-0.2,0.6-0.3,0.7c-0.1,0.2-0.3,0.2-0.5,0.2c-0.1,0-0.2,0-0.3-0.1
			c-0.1-0.1-0.2-0.1-0.2-0.2c-0.1-0.1-0.1-0.2-0.2-0.3c0-0.1-0.1-0.2-0.1-0.3l-1-2.9c-0.1-0.3-0.1-0.5-0.1-0.6
			c0-0.1,0.1-0.2,0.2-0.3c0.1-0.1,0.2-0.2,0.4-0.2c0.2,0,0.3,0.1,0.4,0.2C-409.1,289.9-409,290.1-409,290.4z"/>
		<path class="st2" d="M-401.3,290.3v0.1c0.2-0.3,0.4-0.5,0.7-0.6c0.3-0.1,0.5-0.2,0.9-0.2c0.3,0,0.6,0.1,0.8,0.2
			c0.2,0.1,0.4,0.3,0.6,0.6c0.1,0.1,0.1,0.3,0.2,0.5c0,0.2,0,0.4,0,0.7v2.2c0,0.2-0.1,0.4-0.2,0.5c-0.1,0.1-0.3,0.2-0.4,0.2
			c-0.2,0-0.3-0.1-0.4-0.2c-0.1-0.1-0.2-0.3-0.2-0.5v-2c0-0.4-0.1-0.7-0.2-0.9c-0.1-0.2-0.3-0.3-0.7-0.3c-0.2,0-0.4,0.1-0.6,0.2
			c-0.2,0.1-0.3,0.3-0.4,0.5c-0.1,0.2-0.1,0.5-0.1,1v1.5c0,0.2-0.1,0.4-0.2,0.5c-0.1,0.1-0.3,0.2-0.4,0.2c-0.2,0-0.3-0.1-0.4-0.2
			s-0.2-0.3-0.2-0.5v-3.5c0-0.2,0-0.4,0.1-0.5s0.2-0.2,0.4-0.2c0.1,0,0.2,0,0.3,0.1c0.1,0,0.2,0.1,0.2,0.2
			C-401.3,290-401.3,290.1-401.3,290.3z"/>
		<path class="st2" d="M-396.9,293.8v-5.2c0-0.2,0.1-0.4,0.2-0.5c0.1-0.1,0.3-0.2,0.4-0.2c0.2,0,0.3,0.1,0.4,0.2s0.2,0.3,0.2,0.5
			v5.2c0,0.2-0.1,0.4-0.2,0.5c-0.1,0.1-0.3,0.2-0.4,0.2c-0.2,0-0.3-0.1-0.4-0.2C-396.9,294.2-396.9,294-396.9,293.8z"/>
		<path class="st2" d="M-390,292.1c0,0.4-0.1,0.7-0.2,1s-0.3,0.6-0.5,0.8s-0.5,0.4-0.8,0.5c-0.3,0.1-0.6,0.2-1,0.2
			c-0.4,0-0.7-0.1-1-0.2c-0.3-0.1-0.5-0.3-0.8-0.5s-0.4-0.5-0.5-0.8c-0.1-0.3-0.2-0.6-0.2-1c0-0.4,0.1-0.7,0.2-1
			c0.1-0.3,0.3-0.6,0.5-0.8c0.2-0.2,0.5-0.4,0.8-0.5c0.3-0.1,0.6-0.2,1-0.2c0.4,0,0.7,0.1,1,0.2c0.3,0.1,0.5,0.3,0.8,0.5
			c0.2,0.2,0.4,0.5,0.5,0.8C-390.1,291.4-390,291.7-390,292.1z M-391.2,292.1c0-0.5-0.1-0.9-0.3-1.1c-0.2-0.3-0.5-0.4-0.9-0.4
			c-0.2,0-0.4,0.1-0.6,0.2c-0.2,0.1-0.3,0.3-0.4,0.5c-0.1,0.2-0.1,0.5-0.1,0.8c0,0.3,0,0.6,0.1,0.8c0.1,0.2,0.2,0.4,0.4,0.5
			s0.4,0.2,0.6,0.2c0.4,0,0.7-0.1,0.9-0.4S-391.2,292.6-391.2,292.1z"/>
		<path class="st2" d="M-386,293.8c-0.3,0.2-0.6,0.4-0.8,0.5s-0.6,0.2-0.9,0.2c-0.3,0-0.6-0.1-0.8-0.2c-0.2-0.1-0.4-0.3-0.5-0.5
			c-0.1-0.2-0.2-0.4-0.2-0.7c0-0.3,0.1-0.6,0.3-0.8c0.2-0.2,0.5-0.4,0.9-0.5c0.1,0,0.3-0.1,0.6-0.1c0.3-0.1,0.6-0.1,0.8-0.2
			c0.2-0.1,0.5-0.1,0.7-0.2c0-0.3-0.1-0.5-0.2-0.7c-0.1-0.1-0.3-0.2-0.7-0.2c-0.3,0-0.5,0-0.7,0.1c-0.2,0.1-0.3,0.2-0.4,0.4
			s-0.2,0.3-0.2,0.3c0,0.1-0.1,0.1-0.3,0.1c-0.1,0-0.3,0-0.3-0.1c-0.1-0.1-0.1-0.2-0.1-0.3c0-0.2,0.1-0.4,0.2-0.6
			c0.1-0.2,0.4-0.4,0.7-0.5c0.3-0.1,0.7-0.2,1.2-0.2c0.5,0,0.9,0.1,1.2,0.2s0.5,0.3,0.6,0.6c0.1,0.3,0.2,0.6,0.2,1.1
			c0,0.3,0,0.5,0,0.7c0,0.2,0,0.4,0,0.7c0,0.2,0,0.5,0.1,0.7c0.1,0.2,0.1,0.4,0.1,0.5c0,0.1-0.1,0.2-0.2,0.3
			c-0.1,0.1-0.2,0.2-0.4,0.2c-0.1,0-0.2-0.1-0.4-0.2C-385.8,294.2-385.9,294.1-386,293.8z M-386.1,292.1c-0.2,0.1-0.4,0.1-0.8,0.2
			c-0.3,0.1-0.6,0.1-0.7,0.2c-0.1,0-0.3,0.1-0.4,0.2c-0.1,0.1-0.2,0.2-0.2,0.4c0,0.2,0.1,0.3,0.2,0.5c0.1,0.1,0.3,0.2,0.5,0.2
			c0.2,0,0.5-0.1,0.7-0.2c0.2-0.1,0.3-0.2,0.4-0.4c0.1-0.2,0.2-0.5,0.2-0.9V292.1z"/>
		<path class="st2" d="M-380.4,293.8v-0.1c-0.2,0.2-0.3,0.3-0.5,0.5s-0.3,0.2-0.5,0.3c-0.2,0.1-0.4,0.1-0.6,0.1
			c-0.3,0-0.6-0.1-0.8-0.2c-0.2-0.1-0.5-0.3-0.6-0.5c-0.2-0.2-0.3-0.5-0.4-0.8c-0.1-0.3-0.1-0.6-0.1-1c0-0.8,0.2-1.3,0.5-1.8
			s0.8-0.6,1.4-0.6c0.3,0,0.6,0.1,0.9,0.2c0.2,0.1,0.5,0.3,0.7,0.5v-1.8c0-0.2,0-0.4,0.1-0.6s0.2-0.2,0.4-0.2c0.2,0,0.3,0.1,0.4,0.2
			s0.1,0.3,0.1,0.5v5.3c0,0.2-0.1,0.4-0.2,0.5s-0.2,0.2-0.4,0.2c-0.2,0-0.3-0.1-0.4-0.2C-380.3,294.2-380.4,294-380.4,293.8z
			 M-382.8,292.1c0,0.3,0.1,0.6,0.2,0.8c0.1,0.2,0.2,0.4,0.4,0.5c0.2,0.1,0.4,0.2,0.6,0.2c0.2,0,0.4-0.1,0.6-0.2
			c0.2-0.1,0.3-0.3,0.4-0.5c0.1-0.2,0.2-0.5,0.2-0.9c0-0.3-0.1-0.6-0.2-0.8c-0.1-0.2-0.2-0.4-0.4-0.5c-0.2-0.1-0.4-0.2-0.6-0.2
			c-0.2,0-0.4,0.1-0.6,0.2c-0.2,0.1-0.3,0.3-0.4,0.5C-382.7,291.5-382.8,291.8-382.8,292.1z"/>
		<path class="st2" d="M-371.3,292.1c0,0.4-0.1,0.7-0.2,1s-0.3,0.6-0.5,0.8s-0.5,0.4-0.8,0.5c-0.3,0.1-0.6,0.2-1,0.2
			c-0.4,0-0.7-0.1-1-0.2c-0.3-0.1-0.5-0.3-0.8-0.5s-0.4-0.5-0.5-0.8c-0.1-0.3-0.2-0.6-0.2-1c0-0.4,0.1-0.7,0.2-1
			c0.1-0.3,0.3-0.6,0.5-0.8c0.2-0.2,0.5-0.4,0.8-0.5c0.3-0.1,0.6-0.2,1-0.2c0.4,0,0.7,0.1,1,0.2c0.3,0.1,0.5,0.3,0.8,0.5
			c0.2,0.2,0.4,0.5,0.5,0.8C-371.4,291.4-371.3,291.7-371.3,292.1z M-372.5,292.1c0-0.5-0.1-0.9-0.3-1.1c-0.2-0.3-0.5-0.4-0.9-0.4
			c-0.2,0-0.4,0.1-0.6,0.2c-0.2,0.1-0.3,0.3-0.4,0.5c-0.1,0.2-0.1,0.5-0.1,0.8c0,0.3,0,0.6,0.1,0.8c0.1,0.2,0.2,0.4,0.4,0.5
			s0.4,0.2,0.6,0.2c0.4,0,0.7-0.1,0.9-0.4S-372.5,292.6-372.5,292.1z"/>
		<path class="st2" d="M-369.3,290.3v0.1c0.2-0.3,0.4-0.5,0.7-0.6s0.5-0.2,0.9-0.2c0.3,0,0.6,0.1,0.8,0.2c0.2,0.1,0.4,0.3,0.6,0.6
			c0.1,0.1,0.1,0.3,0.2,0.5c0,0.2,0,0.4,0,0.7v2.2c0,0.2-0.1,0.4-0.2,0.5c-0.1,0.1-0.3,0.2-0.4,0.2c-0.2,0-0.3-0.1-0.4-0.2
			c-0.1-0.1-0.2-0.3-0.2-0.5v-2c0-0.4-0.1-0.7-0.2-0.9s-0.3-0.3-0.7-0.3c-0.2,0-0.4,0.1-0.6,0.2c-0.2,0.1-0.3,0.3-0.4,0.5
			c-0.1,0.2-0.1,0.5-0.1,1v1.5c0,0.2-0.1,0.4-0.2,0.5c-0.1,0.1-0.3,0.2-0.4,0.2c-0.2,0-0.3-0.1-0.4-0.2s-0.2-0.3-0.2-0.5v-3.5
			c0-0.2,0-0.4,0.1-0.5s0.2-0.2,0.4-0.2c0.1,0,0.2,0,0.3,0.1s0.2,0.1,0.2,0.2C-369.3,290-369.3,290.1-369.3,290.3z"/>
		<path class="st2" d="M-362.6,289.7h0.1V289c0-0.2,0-0.3,0-0.5c0-0.1,0-0.2,0.1-0.3c0-0.1,0.1-0.1,0.2-0.2c0.1-0.1,0.2-0.1,0.3-0.1
			c0.2,0,0.3,0.1,0.4,0.2c0.1,0.1,0.1,0.2,0.2,0.3c0,0.1,0,0.3,0,0.5v0.8h0.4c0.2,0,0.3,0,0.4,0.1c0.1,0.1,0.1,0.2,0.1,0.3
			c0,0.2-0.1,0.3-0.2,0.3c-0.1,0.1-0.3,0.1-0.5,0.1h-0.2v2.2c0,0.2,0,0.3,0,0.4c0,0.1,0,0.2,0.1,0.2c0.1,0.1,0.2,0.1,0.3,0.1
			c0.1,0,0.2,0,0.3,0c0.1,0,0.2,0,0.3,0c0.1,0,0.2,0,0.3,0.1c0.1,0.1,0.1,0.2,0.1,0.3c0,0.2-0.1,0.3-0.3,0.4
			c-0.2,0.1-0.5,0.2-0.9,0.2c-0.4,0-0.7-0.1-0.9-0.2s-0.3-0.3-0.4-0.5c-0.1-0.2-0.1-0.5-0.1-0.9v-2.3h-0.2c-0.2,0-0.3,0-0.4-0.1
			c-0.1-0.1-0.1-0.2-0.1-0.3c0-0.1,0-0.2,0.1-0.3C-362.9,289.8-362.8,289.7-362.6,289.7z"/>
		<path class="st2" d="M-358.3,288.6v1.8c0.2-0.2,0.3-0.3,0.4-0.4s0.3-0.2,0.5-0.2c0.2-0.1,0.4-0.1,0.6-0.1c0.3,0,0.6,0.1,0.8,0.2
			c0.2,0.1,0.4,0.3,0.6,0.6c0.1,0.1,0.1,0.3,0.2,0.5c0,0.2,0,0.4,0,0.6v2.3c0,0.2-0.1,0.4-0.2,0.5c-0.1,0.1-0.3,0.2-0.4,0.2
			c-0.4,0-0.6-0.2-0.6-0.7v-2c0-0.4-0.1-0.7-0.2-0.9c-0.1-0.2-0.3-0.3-0.7-0.3c-0.2,0-0.4,0.1-0.6,0.2c-0.2,0.1-0.3,0.3-0.4,0.5
			c-0.1,0.2-0.1,0.5-0.1,1v1.6c0,0.2-0.1,0.4-0.2,0.5s-0.3,0.2-0.4,0.2c-0.4,0-0.6-0.2-0.6-0.7v-5.2c0-0.2,0.1-0.4,0.2-0.5
			c0.1-0.1,0.3-0.2,0.4-0.2c0.2,0,0.3,0.1,0.4,0.2C-358.3,288.1-358.3,288.3-358.3,288.6z"/>
		<path class="st2" d="M-350.7,292.4h-2.4c0,0.3,0.1,0.5,0.2,0.7c0.1,0.2,0.2,0.4,0.4,0.5c0.2,0.1,0.4,0.2,0.6,0.2
			c0.1,0,0.3,0,0.4-0.1c0.1,0,0.2-0.1,0.3-0.2c0.1-0.1,0.2-0.1,0.3-0.2s0.2-0.2,0.4-0.3c0.1-0.1,0.1-0.1,0.3-0.1
			c0.1,0,0.2,0,0.3,0.1s0.1,0.2,0.1,0.3c0,0.1,0,0.2-0.1,0.4c-0.1,0.1-0.2,0.3-0.4,0.4s-0.4,0.2-0.6,0.3c-0.3,0.1-0.6,0.1-0.9,0.1
			c-0.8,0-1.4-0.2-1.8-0.7c-0.4-0.4-0.6-1-0.6-1.8c0-0.4,0.1-0.7,0.2-1s0.3-0.6,0.5-0.8c0.2-0.2,0.5-0.4,0.7-0.5
			c0.3-0.1,0.6-0.2,1-0.2c0.5,0,0.9,0.1,1.2,0.3s0.6,0.5,0.8,0.8c0.2,0.3,0.3,0.6,0.3,1c0,0.3-0.1,0.5-0.3,0.6
			C-350.1,292.3-350.3,292.4-350.7,292.4z M-353,291.7h2.2c0-0.4-0.1-0.7-0.3-0.9s-0.4-0.3-0.8-0.3c-0.3,0-0.5,0.1-0.7,0.3
			S-353,291.3-353,291.7z"/>
	</g>
</g>
<g>
	<path class="st2" d="M-415.2,305.4c0,0.6-0.1,1.1-0.4,1.5c-0.3,0.4-0.7,0.8-1.3,1.1s-1.2,0.4-2,0.4c-0.9,0-1.7-0.2-2.3-0.5
		c-0.4-0.3-0.8-0.6-1-1s-0.4-0.8-0.4-1.2c0-0.2,0.1-0.4,0.2-0.6c0.2-0.2,0.4-0.2,0.6-0.2c0.2,0,0.4,0.1,0.5,0.2s0.3,0.3,0.4,0.6
		c0.1,0.3,0.2,0.5,0.4,0.7c0.1,0.2,0.3,0.4,0.6,0.5c0.3,0.1,0.6,0.2,1,0.2c0.6,0,1-0.1,1.4-0.4c0.3-0.3,0.5-0.6,0.5-1
		c0-0.3-0.1-0.6-0.3-0.8s-0.4-0.3-0.7-0.4c-0.3-0.1-0.7-0.2-1.2-0.3c-0.7-0.2-1.2-0.3-1.7-0.5c-0.5-0.2-0.8-0.5-1.1-0.9
		c-0.3-0.4-0.4-0.8-0.4-1.3c0-0.5,0.1-1,0.4-1.4s0.7-0.7,1.2-0.9s1.2-0.3,1.9-0.3c0.6,0,1.1,0.1,1.5,0.2s0.8,0.3,1,0.6
		c0.3,0.2,0.5,0.5,0.6,0.7s0.2,0.5,0.2,0.8c0,0.2-0.1,0.4-0.2,0.6c-0.2,0.2-0.4,0.3-0.6,0.3c-0.2,0-0.4-0.1-0.5-0.2
		c-0.1-0.1-0.2-0.3-0.4-0.5c-0.2-0.4-0.4-0.6-0.6-0.8c-0.2-0.2-0.6-0.3-1.1-0.3c-0.5,0-0.9,0.1-1.2,0.3c-0.3,0.2-0.4,0.5-0.4,0.8
		c0,0.2,0.1,0.3,0.2,0.5s0.2,0.3,0.4,0.3c0.2,0.1,0.4,0.2,0.5,0.2c0.2,0.1,0.5,0.1,0.9,0.2c0.5,0.1,1,0.3,1.4,0.4
		c0.4,0.1,0.8,0.3,1.1,0.5c0.3,0.2,0.5,0.5,0.7,0.8C-415.2,304.5-415.2,304.9-415.2,305.4z"/>
	<path class="st2" d="M-412.8,300.5c-0.2,0-0.4-0.1-0.6-0.2c-0.2-0.1-0.3-0.4-0.3-0.6c0-0.2,0.1-0.4,0.3-0.6
		c0.2-0.2,0.4-0.2,0.6-0.2c0.2,0,0.4,0.1,0.6,0.2c0.2,0.1,0.3,0.4,0.3,0.6c0,0.3-0.1,0.5-0.3,0.6S-412.6,300.5-412.8,300.5z
		 M-411.9,302.2v5c0,0.3-0.1,0.6-0.2,0.8c-0.2,0.2-0.4,0.3-0.6,0.3s-0.5-0.1-0.6-0.3c-0.2-0.2-0.2-0.4-0.2-0.8v-5
		c0-0.3,0.1-0.6,0.2-0.8c0.2-0.2,0.4-0.3,0.6-0.3s0.5,0.1,0.6,0.3C-412,301.7-411.9,301.9-411.9,302.2z"/>
	<path class="st2" d="M-408.6,299.7v2.6c0.3-0.3,0.7-0.6,1-0.8s0.8-0.3,1.3-0.3c0.6,0,1.1,0.1,1.5,0.4c0.4,0.3,0.8,0.7,1,1.2
		s0.4,1.1,0.4,1.8c0,0.5-0.1,1-0.2,1.4c-0.1,0.4-0.3,0.8-0.6,1.1s-0.6,0.6-0.9,0.7c-0.4,0.2-0.8,0.3-1.2,0.3c-0.3,0-0.5,0-0.8-0.1
		c-0.2-0.1-0.4-0.1-0.6-0.3s-0.3-0.2-0.4-0.3s-0.3-0.3-0.5-0.5v0.2c0,0.3-0.1,0.6-0.2,0.7s-0.4,0.3-0.6,0.3c-0.2,0-0.4-0.1-0.6-0.3
		c-0.1-0.2-0.2-0.4-0.2-0.7v-7.6c0-0.4,0.1-0.6,0.2-0.8s0.3-0.3,0.6-0.3c0.3,0,0.5,0.1,0.6,0.3
		C-408.6,299.1-408.6,299.4-408.6,299.7z M-408.5,304.8c0,0.7,0.2,1.2,0.5,1.6s0.7,0.6,1.2,0.6c0.4,0,0.8-0.2,1.1-0.6
		s0.5-0.9,0.5-1.6c0-0.5-0.1-0.9-0.2-1.2c-0.1-0.3-0.3-0.6-0.6-0.8c-0.2-0.2-0.5-0.3-0.8-0.3c-0.3,0-0.6,0.1-0.9,0.3
		c-0.3,0.2-0.5,0.4-0.6,0.8C-408.4,303.9-408.5,304.4-408.5,304.8z"/>
	<path class="st2" d="M-396,307.1l-0.4-1.2h-3.8l-0.4,1.2c-0.2,0.5-0.3,0.8-0.4,0.9s-0.3,0.2-0.6,0.2c-0.2,0-0.4-0.1-0.6-0.3
		s-0.3-0.4-0.3-0.6c0-0.1,0-0.3,0.1-0.4c0-0.1,0.1-0.3,0.2-0.6l2.4-6c0.1-0.2,0.1-0.4,0.2-0.6c0.1-0.2,0.2-0.4,0.3-0.6
		c0.1-0.2,0.2-0.3,0.4-0.4s0.4-0.1,0.7-0.1c0.3,0,0.5,0,0.7,0.1s0.3,0.2,0.4,0.4c0.1,0.2,0.2,0.3,0.3,0.5s0.2,0.4,0.3,0.7l2.4,6
		c0.2,0.5,0.3,0.8,0.3,1c0,0.2-0.1,0.4-0.3,0.6s-0.4,0.3-0.7,0.3c-0.1,0-0.3,0-0.4-0.1s-0.2-0.1-0.3-0.2s-0.1-0.2-0.2-0.4
		C-395.8,307.4-395.9,307.2-396,307.1z M-399.7,304.5h2.8l-1.4-3.8L-399.7,304.5z"/>
	<path class="st2" d="M-391.1,302.2v0.2c0.3-0.4,0.7-0.7,1-0.9c0.4-0.2,0.8-0.3,1.2-0.3c0.5,0,1,0.1,1.5,0.4
		c0.4,0.3,0.8,0.7,1.1,1.2c0.3,0.5,0.4,1.2,0.4,1.9c0,0.5-0.1,1-0.2,1.5s-0.4,0.8-0.6,1.1c-0.3,0.3-0.6,0.5-0.9,0.7
		s-0.7,0.2-1.2,0.2c-0.5,0-0.9-0.1-1.2-0.3c-0.3-0.2-0.7-0.5-1-0.9v2.6c0,0.8-0.3,1.1-0.8,1.1c-0.3,0-0.5-0.1-0.6-0.3
		c-0.1-0.2-0.2-0.5-0.2-0.9v-7.5c0-0.3,0.1-0.6,0.2-0.7c0.1-0.2,0.3-0.2,0.6-0.2c0.2,0,0.4,0.1,0.6,0.3S-391.1,301.9-391.1,302.2z
		 M-387.7,304.8c0-0.5-0.1-0.8-0.2-1.2c-0.1-0.3-0.3-0.6-0.6-0.8c-0.2-0.2-0.5-0.3-0.8-0.3c-0.5,0-0.9,0.2-1.2,0.6s-0.5,0.9-0.5,1.7
		c0,0.7,0.2,1.2,0.5,1.6c0.3,0.4,0.7,0.6,1.2,0.6c0.3,0,0.6-0.1,0.8-0.3s0.4-0.4,0.6-0.8C-387.8,305.6-387.7,305.2-387.7,304.8z"/>
	<path class="st2" d="M-383,302.2v0.2c0.3-0.4,0.7-0.7,1-0.9c0.4-0.2,0.8-0.3,1.2-0.3c0.5,0,1,0.1,1.5,0.4c0.4,0.3,0.8,0.7,1.1,1.2
		c0.3,0.5,0.4,1.2,0.4,1.9c0,0.5-0.1,1-0.2,1.5s-0.4,0.8-0.6,1.1c-0.3,0.3-0.6,0.5-0.9,0.7s-0.7,0.2-1.2,0.2c-0.5,0-0.9-0.1-1.2-0.3
		c-0.3-0.2-0.7-0.5-1-0.9v2.6c0,0.8-0.3,1.1-0.8,1.1c-0.3,0-0.5-0.1-0.6-0.3c-0.1-0.2-0.2-0.5-0.2-0.9v-7.5c0-0.3,0.1-0.6,0.2-0.7
		c0.1-0.2,0.3-0.2,0.6-0.2c0.2,0,0.4,0.1,0.6,0.3S-383,301.9-383,302.2z M-379.6,304.8c0-0.5-0.1-0.8-0.2-1.2
		c-0.1-0.3-0.3-0.6-0.6-0.8c-0.2-0.2-0.5-0.3-0.8-0.3c-0.5,0-0.9,0.2-1.2,0.6s-0.5,0.9-0.5,1.7c0,0.7,0.2,1.2,0.5,1.6
		c0.3,0.4,0.7,0.6,1.2,0.6c0.3,0,0.6-0.1,0.8-0.3s0.4-0.4,0.6-0.8C-379.6,305.6-379.6,305.2-379.6,304.8z"/>
</g>
<g class="st3">
	<path class="st4" d="M-436.8,291v11.7c0,0.7,0.4,1.7,0.9,2.3c0.1,0.1,0.1,0.2,0.2,0.3c0.1,0.1,0.1,0.2,0.2,0.3
		c0.4,0.3,0.8,0.6,1.2,0.8c0.5,0.2,1.1,0.4,1.7,0.4h4.5c0.7,0,1.1-0.3,1.5-0.6c1-0.8,1.1-2.7-0.5-3.6c-0.9-0.5-4.4,0-5-0.3
		c-0.2-0.1-0.3-0.2-0.4-0.4c-0.1-0.3,0-8.3,0-9c0-1.4,0.2-2.7-1-3.5c-1.2-0.8-2.7-0.2-3.2,0.8C-436.6,290.3-436.8,290.7-436.8,291
		L-436.8,291z"/>
	<path class="st4" d="M-450,306.5c0,0.8,0.2,1.4,0.8,1.9c0.4,0.4,1,0.5,1.8,0.5h3.7c2.9,0,4.8-1.9,4.8-4.8v-5.9
		c0-0.9-0.2-1.3-0.6-1.8c-0.7-0.9-2.3-1.1-3.2-0.1c-0.7,0.7-0.7,1.2-0.7,2c0,1.6,0,3.3,0,4.9c0,1-0.2,1.3-1.2,1.2
		c-0.8,0-1.7,0-2.5,0c-1,0-1.4-0.1-2.1,0.4C-449.5,305.2-450,305.8-450,306.5L-450,306.5z"/>
	<path class="st4" d="M-463.3,302c0,1,0.3,1.8,1.2,2.2c0.3,0.1,0.5,0.2,0.9,0.2h4.8c2.1,0,4.2-2,4.2-4.5v-6.5c0-0.7-0.3-1.2-0.6-1.6
		c-1-1-2.5-0.9-3.3,0.1c-0.5,0.6-0.5,0.8-0.5,1.9c0,1.6,0,3.3,0,4.9c0,0.5,0,0.7-0.2,1c-0.3,0.3-0.5,0.2-1,0.2c-0.8,0-1.7,0-2.5,0
		c-1.2,0-2,0.1-2.6,1.1C-463.1,301.3-463.3,301.7-463.3,302L-463.3,302z"/>
	<path class="st4" d="M-450,288.8v11.4c0,1.8,2.5,2.9,3.8,1.3c0.4-0.4,0.6-0.9,0.6-1.8v-10.6c0-0.7-0.2-1.3-0.6-1.6
		C-447.6,285.9-450,287.1-450,288.8L-450,288.8z"/>
	<path class="st4" d="M-439,308.8c0,1.4,0.9,2.3,2.3,2.3c2.4,0,2.9-3.3,0.9-4.2C-437.5,306.1-439,307.5-439,308.8L-439,308.8z"/>
	<path class="st4" d="M-443.4,291.1c0,0.7,0.1,1.2,0.6,1.7c1.3,1.3,3.8,0.5,3.8-1.6c0-1.2-1.1-2.2-2.2-2.2
		C-442.3,289-443.4,289.9-443.4,291.1L-443.4,291.1z"/>
</g>
<g>
	<path class="st5" d="M-440.1,288c1.3-1.1,2.3-2.7,2.4-4.5c-1.6-0.2-3.6,0.4-5,1.5c-1.2,1-2.4,2.6-2.4,4.4
		C-443.3,289.8-441.4,289.1-440.1,288z M-455,294.6c-3.5,7.7-1.1,13,0.1,14.6c-0.1-2.9,0.4-7.2,3.7-10.6c1.4-1.9,3.7-3.1,6.3-3.1
		c1.6,0,3.2,0.6,4.4,1.5C-446.3,292.1-454.9,294.4-455,294.6z M-437,293c-7.9-3.2-12.5-0.9-14.1,0.3c3-0.1,7.5,0.4,11.2,4.3
		c1.5,1.4,2.4,3.4,2.4,5.6c0,1.5-0.5,2.8-1.2,4C-433.9,301.7-436.7,293.1-437,293z M-435.3,311.4c3.3-7.8,1.2-12.6,0-14.4
		c0.1,2.8-0.5,6.9-3.5,10.2c-1.4,2.1-3.8,3.4-6.5,3.4c-1.3,0-3-0.6-4-1.2c-0.1-0.1-0.3-0.3-0.4-0.4c-1.8-1.4-3-3.7-2.9-6.1
		c0-1.5,0.5-2.9,1.3-4.1c-4.3,5-2.8,13.8-2.6,13.9c8.2,3.6,13,1.3,14.7,0.1c-2.8,0.1-6.8-0.5-10.1-3.3
		C-443.6,313.4-435.4,311.6-435.3,311.4z M-439.8,297.8L-439.8,297.8c0-0.1-0.1-0.1-0.1-0.2c0,0,0,0,0,0c-0.2-0.2-0.4-0.4-0.6-0.5
		C-440.3,297.3-440,297.5-439.8,297.8z M-438.8,307.2C-438.8,307.2-438.8,307.2-438.8,307.2C-438.8,307.2-438.8,307.2-438.8,307.2
		C-438.8,307.2-438.8,307.2-438.8,307.2z"/>
</g>
</svg>
